# xmcd CD database file
#
# Track frame offsets:
#	150
#	22884
#	44664
#	75778
#	95373
#	119802
#	142969
#	153901
#	169093
#	191947
#	217759
#
# Disc length: 3345 seconds
#
# Revision: 0
# Processed by: cddbd v1.4PL0 Copyright (c) Steve Scherf et al.
# Submitted via: CDex 1.50Beta7
#
DISCID=890d0f0b
DTITLE=Weather Report - Mr.Gone
DYEAR=1976
DGENRE=Jazz
TTITLE0=Pursuit of the Woman in the Feathered Hat
TTITLE1=River People
TTITLE2=Young and Fine
TTITLE3=Elders
TTITLE4=Mr. Gone
TTITLE5=Punk Jazz
TTITLE6=Pinocchio
TTITLE7=And Then
TTITLE8=Bonus_1
TTITLE9=Bonus_2
TTITLE10=Bonus_3
EXTD=YEAR: 1976
EXTT0=
EXTT1=
EXTT2=
EXTT3=
EXTT4=
EXTT5=
EXTT6=
EXTT7=
EXTT8=
EXTT9=
EXTT10=
PLAYORDER=
